# xmcd
#
# Track frame offsets:
#	150
#	18525
#	34702
#	53135
#	70570
#	86957
#	106385
#	122660
#	136525
#	151157
#	166395
#	182465
#
# Disc length: 2673 seconds
#
# Revision: 0
# Processed by: cddbd v1.4PL0 Copyright (c) Steve Scherf et al.
# Submitted via: EasyCDDAExtractor 4.6.9.1
#
DISCID=8f0a6f0c
DTITLE=컨츄리꼬꼬 - 4집
DYEAR=2001
DGENRE=
TTITLE0=Love or Lust
TTITLE1=어이해
TTITLE2=사랑해
TTITLE3=새 와 별
TTITLE4=애인
TTITLE5=Scarlet Love
TTITLE6=Finale
TTITLE7=Copacabana
TTITLE8=After Care
TTITLE9=What can I do
TTITLE10=Promise
TTITLE11=미련
EXTD=
EXTT0=
EXTT1=
EXTT2=
EXTT3=
EXTT4=
EXTT5=
EXTT6=
EXTT7=
EXTT8=
EXTT9=
EXTT10=
EXTT11=
PLAYORDER=
